HIERARCHY
ROOT Cow_ROOTSHJnt
{
	OFFSET 0.000000 104.418205 -66.749687
	CHANNELS 6 Xposition Yposition Zposition Xrotation Yrotation Zrotation
	JOINT Cow_Spine_01SHJnt
	{
		OFFSET 0.000000 -0.645172 20.599144
		CHANNELS 3 Xrotation Yrotation Zrotation
		JOINT Cow_Spine_02SHJnt
		{
			OFFSET -0.000000 -0.659470 20.593332
			CHANNELS 3 Xrotation Yrotation Zrotation
			JOINT Cow_Spine_03SHJnt
			{
				OFFSET -0.000000 -0.983315 20.606550
				CHANNELS 3 Xrotation Yrotation Zrotation
				JOINT Cow_Spine_04SHJnt
				{
					OFFSET -0.000000 1.374176 20.599676
					CHANNELS 3 Xrotation Yrotation Zrotation
					JOINT Cow_Spine_TopSHJnt
					{
						OFFSET -0.000000 0.913788 20.599678
						CHANNELS 3 Xrotation Yrotation Zrotation
						JOINT Cow_l_Clavicle_01_01SHJnt
						{
							OFFSET 11.171912 0.000000 0.000000
							CHANNELS 3 Xrotation Yrotation Zrotation
							JOINT Cow_l_FrontLeg_HipSHJnt
							{
								OFFSET 7.976342 -13.093445 4.953094
								CHANNELS 3 Xrotation Yrotation Zrotation
								JOINT Cow_l_FrontLeg_Knee1SHJnt
								{
									OFFSET 0.000006 -54.085663 3.929428
									CHANNELS 3 Xrotation Yrotation Zrotation
									JOINT Cow_l_FrontLeg_Knee2SHJnt
									{
										OFFSET 0.000000 -22.377888 -1.964962
										CHANNELS 3 Xrotation Yrotation Zrotation
										JOINT Cow_l_FrontLeg_AnkleSHJnt
										{
											OFFSET 0.000000 -5.827117 0.663101
											CHANNELS 3 Xrotation Yrotation Zrotation
											JOINT Cow_l_FrontLeg_BallSHJnt
											{
												OFFSET 0.000006 -9.033521 5.970051
												CHANNELS 3 Xrotation Yrotation Zrotation
												JOINT Cow_l_FrontLeg_ToeSHJnt
												{
													OFFSET 0.000006 -0.000236 7.439106
													CHANNELS 3 Xrotation Yrotation Zrotation
													End Site
													{
														OFFSET 7.439106 0.000000 -0.000004
													}
												}
											}
										}
									}
								}
							}
						}
						JOINT Cow_r_Clavicle_01_01SHJnt
						{
							OFFSET -11.171912 0.000000 0.000000
							CHANNELS 3 Xrotation Yrotation Zrotation
							JOINT Cow_r_FrontLeg_HipSHJnt
							{
								OFFSET -7.976342 -13.093445 4.953094
								CHANNELS 3 Xrotation Yrotation Zrotation
								JOINT Cow_r_FrontLeg_Knee1SHJnt
								{
									OFFSET 0.000006 -54.085663 3.929428
									CHANNELS 3 Xrotation Yrotation Zrotation
									JOINT Cow_r_FrontLeg_Knee2SHJnt
									{
										OFFSET 0.000000 -22.377888 -1.964962
										CHANNELS 3 Xrotation Yrotation Zrotation
										JOINT Cow_r_FrontLeg_AnkleSHJnt
										{
											OFFSET 0.000000 -5.827118 0.663101
											CHANNELS 3 Xrotation Yrotation Zrotation
											JOINT Cow_r_FrontLeg_BallSHJnt
											{
												OFFSET 0.000006 -9.033521 5.970051
												CHANNELS 3 Xrotation Yrotation Zrotation
												JOINT Cow_r_FrontLeg_ToeSHJnt
												{
													OFFSET 0.000006 -0.000236 7.439106
													CHANNELS 3 Xrotation Yrotation Zrotation
													End Site
													{
														OFFSET 7.439106 0.000000 -0.000004
													}
												}
											}
										}
									}
								}
							}
						}
						JOINT Cow_Neck_01SHJnt
						{
							OFFSET 0.000000 -3.042931 25.141075
							CHANNELS 3 Xrotation Yrotation Zrotation
							JOINT Cow_Neck_02SHJnt
							{
								OFFSET -0.000000 5.198975 19.440189
								CHANNELS 3 Xrotation Yrotation Zrotation
								JOINT Cow_Neck_TopSHJnt
								{
									OFFSET -0.000000 2.823219 15.102203
									CHANNELS 3 Xrotation Yrotation Zrotation
									JOINT Cow_Head_JawSHJnt
									{
										OFFSET 0.000000 -11.047028 35.995026
										CHANNELS 3 Xrotation Yrotation Zrotation
										JOINT Cow_Head_JawEndSHJnt
										{
											OFFSET 0.000001 -8.004074 14.239838
											CHANNELS 3 Xrotation Yrotation Zrotation
											End Site
											{
												OFFSET 0.000001 -7.802444 14.351303
											}
										}
									}
									JOINT Cow_Head_TopSHJnt
									{
										OFFSET -0.000001 24.239838 27.576538
										CHANNELS 3 Xrotation Yrotation Zrotation
										JOINT Cow_l_Ear_01_01SHJnt
										{
											OFFSET 14.495198 -8.068291 -16.691696
											CHANNELS 3 Xrotation Yrotation Zrotation
											JOINT Cow_l_Ear_01_02SHJnt
											{
												OFFSET 6.722663 1.751846 -2.771584
												CHANNELS 3 Xrotation Yrotation Zrotation
												JOINT Cow_l_Ear_01_03SHJnt
												{
													OFFSET 10.716763 1.540672 0.206581
													CHANNELS 3 Xrotation Yrotation Zrotation
													End Site
													{
														OFFSET 0.679575 -2.729614 10.457191
													}
												}
											}
										}
										JOINT Cow_r_Ear_01_01SHJnt
										{
											OFFSET -14.495194 -8.068298 -16.691696
											CHANNELS 3 Xrotation Yrotation Zrotation
											JOINT Cow_r_Ear_01_02SHJnt
											{
												OFFSET -6.722663 1.751839 -2.771584
												CHANNELS 3 Xrotation Yrotation Zrotation
												JOINT Cow_r_Ear_01_03SHJnt
												{
													OFFSET -10.716763 1.540672 0.206581
													CHANNELS 3 Xrotation Yrotation Zrotation
													End Site
													{
														OFFSET -0.679575 -2.729614 10.457191
													}
												}
											}
										}
									}
								}
							}
							JOINT Cow_NeckSkin_01_01SHJnt
							{
								OFFSET 0.000001 -28.699036 3.570499
								CHANNELS 3 Xrotation Yrotation Zrotation
								JOINT Cow_NeckSkin_01_02SHJnt
								{
									OFFSET 0.000001 -13.726456 3.287460
									CHANNELS 3 Xrotation Yrotation Zrotation
									End Site
									{
										OFFSET 0.000000 3.287460 13.726448
									}
								}
							}
						}
					}
				}
			}
		}
	}
	JOINT Cow_l_HindLeg_HipSHJnt
	{
		OFFSET 22.626928 -17.868790 -3.434631
		CHANNELS 3 Xrotation Yrotation Zrotation
		JOINT Cow_l_HindLeg_Knee1SHJnt
		{
			OFFSET -4.433996 -42.020042 -11.629990
			CHANNELS 3 Xrotation Yrotation Zrotation
			JOINT Cow_l_HindLeg_Knee2SHJnt
			{
				OFFSET 0.572979 -32.422234 5.223465
				CHANNELS 3 Xrotation Yrotation Zrotation
				JOINT Cow_l_HindLeg_AnkleSHJnt
				{
					OFFSET 0.961411 -7.270234 2.095169
					CHANNELS 3 Xrotation Yrotation Zrotation
					JOINT Cow_l_HindLeg_BallSHJnt
					{
						OFFSET 0.000000 -4.836911 3.795708
						CHANNELS 3 Xrotation Yrotation Zrotation
						JOINT Cow_l_HindLeg_ToeSHJnt
						{
							OFFSET 0.000000 0.000000 6.175804
							CHANNELS 3 Xrotation Yrotation Zrotation
							End Site
							{
								OFFSET 6.175808 0.000000 0.000000
							}
						}
					}
				}
			}
		}
	}
	JOINT Cow_r_HindLeg_HipSHJnt
	{
		OFFSET -22.626928 -17.868790 -3.434631
		CHANNELS 3 Xrotation Yrotation Zrotation
		JOINT Cow_r_HindLeg_Knee1SHJnt
		{
			OFFSET 4.434002 -42.020042 -11.629990
			CHANNELS 3 Xrotation Yrotation Zrotation
			JOINT Cow_r_HindLeg_Knee2SHJnt
			{
				OFFSET -0.572975 -32.422234 5.223465
				CHANNELS 3 Xrotation Yrotation Zrotation
				JOINT Cow_r_HindLeg_AnkleSHJnt
				{
					OFFSET -0.961411 -7.270235 2.095169
					CHANNELS 3 Xrotation Yrotation Zrotation
					JOINT Cow_r_HindLeg_BallSHJnt
					{
						OFFSET 0.000000 -4.836911 3.795708
						CHANNELS 3 Xrotation Yrotation Zrotation
						JOINT Cow_r_HindLeg_ToeSHJnt
						{
							OFFSET 0.000000 0.000001 6.175804
							CHANNELS 3 Xrotation Yrotation Zrotation
							End Site
							{
								OFFSET 6.175806 0.000001 0.000000
							}
						}
					}
				}
			}
		}
	}
	JOINT Cow_Tail_01_01SHJnt
	{
		OFFSET 0.000000 23.982246 -20.837936
		CHANNELS 3 Xrotation Yrotation Zrotation
		JOINT Cow_Tail_01_02SHJnt
		{
			OFFSET -0.000000 -11.072281 -7.960037
			CHANNELS 3 Xrotation Yrotation Zrotation
			JOINT Cow_Tail_01_03SHJnt
			{
				OFFSET -0.000000 -14.319481 -2.666931
				CHANNELS 3 Xrotation Yrotation Zrotation
				JOINT Cow_Tail_01_04SHJnt
				{
					OFFSET -0.000000 -14.386604 1.425095
					CHANNELS 3 Xrotation Yrotation Zrotation
					JOINT Cow_Tail_01_05SHJnt
					{
						OFFSET -0.000000 -14.413574 1.119919
						CHANNELS 3 Xrotation Yrotation Zrotation
						JOINT Cow_Tail_01_06SHJnt
						{
							OFFSET -0.000000 -13.741089 -0.772911
							CHANNELS 3 Xrotation Yrotation Zrotation
							JOINT Cow_Tail_01_07SHJnt
							{
								OFFSET -0.000000 -14.118168 -3.111679
								CHANNELS 3 Xrotation Yrotation Zrotation
								End Site
								{
									OFFSET -0.000000 3.111683 -14.118164
								}
							}
						}
					}
				}
			}
		}
	}
	JOINT Cow_Udder_01_01SHJnt
	{
		OFFSET 0.000000 -41.393280 7.188248
		CHANNELS 3 Xrotation Yrotation Zrotation
		JOINT Cow_Udder_01_02SHJnt
		{
			OFFSET 0.000001 -13.240067 -3.137054
			CHANNELS 3 Xrotation Yrotation Zrotation
			End Site
			{
				OFFSET 0.000001 3.137054 -13.240074
			}
		}
	}
}
MOTION
Frames: 4
Frame Time: 0.040000
0.000000 100.348618 -40.909592 -0.541200 0.000000 -0.000000 -1.039849 0.544865 0.010058 0.705247 -0.348922 -0.001681 0.653579 -0.363232 0.002105 0.725181 -0.363140 0.006804 -1.052552 0.544819 -0.000030 -0.000000 -0.000000 0.000000 0.471604 -0.157494 0.069860 -0.326551 0.000000 0.000001 -1.789887 0.164230 -0.000016 3.732796 -0.009612 -0.065443 0.000000 0.000000 0.000002 0.000000 -0.000000 -0.000000 -0.000000 -0.000000 0.000000 0.043951 0.227963 0.181549 -1.163896 0.000000 0.000001 4.189626 -0.211814 0.017973 -2.529509 -0.017214 -0.188173 -0.000000 0.000000 -0.000004 -0.000000 0.000000 0.000000 12.254889 -0.000579 -0.002707 15.666635 -0.001069 -0.001855 6.088011 -0.000858 -0.002009 -23.380052 -0.000006 0.000001 -0.000002 0.000000 0.000000 -0.000003 0.000011 -0.000009 1.691779 -14.237337 -3.536331 1.670744 -14.239671 -3.539079 0.000003 -0.000001 -0.000001 1.691795 14.237339 3.536310 1.670737 14.239672 3.539083 0.000008 0.000002 -0.000001 -4.185020 -3.028842 2.623605 -0.000002 -0.000001 -0.000007 13.096556 -4.003765 -1.965919 -16.550301 -0.216613 4.657331 9.797924 3.884324 -2.318464 -5.634543 -0.723907 0.048414 -0.000000 -0.000000 0.000000 -0.000000 -0.000000 0.000000 8.572648 4.351632 2.313346 -20.706989 0.481626 -5.803873 13.560125 -2.693814 3.528504 1.427845 -0.384691 -0.661772 0.000000 -0.000000 0.000000 0.000000 -0.000000 -0.000000 3.052114 0.288276 0.701190 3.031346 0.627544 1.041815 0.000001 0.000000 -0.000000 -2.787574 -1.916639 0.382325 -2.788623 -1.931140 0.242491 -2.738299 -1.919540 0.145138 -0.000000 0.000000 -0.000000 3.910759 -3.609097 -0.142555 -0.000000 0.000000 -0.000000 
0.000000 100.509048 -41.083595 -0.542073 0.000000 -0.000000 -1.396623 0.743212 0.018574 0.952425 -0.499892 -0.004284 0.878676 -0.495513 0.003883 0.975936 -0.495304 0.012510 -1.416145 0.743216 -0.000051 0.000000 0.000000 -0.000000 -5.107087 -0.163646 0.057313 17.395119 -0.000006 -0.000012 -4.584649 0.150840 -0.029291 3.969263 -0.009092 -0.060981 0.000001 0.000000 -0.000002 0.000001 -0.000000 0.000000 0.000000 0.000000 -0.000000 -0.590076 0.224589 0.182484 1.118623 -0.000000 -0.000001 1.001273 -0.207923 0.010104 -0.874831 -0.019121 -0.186356 0.000000 0.000000 -0.000011 0.000000 -0.000000 0.000000 9.464224 -0.000390 -0.002384 13.464739 -0.001291 -0.002461 5.085302 -0.000124 -0.000315 -23.380053 -0.000006 0.000001 -0.000003 0.000000 -0.000000 -0.000003 0.000011 -0.000009 1.499414 -12.425134 -3.201444 1.503486 -12.424726 -3.200861 -0.000001 -0.000001 0.000000 1.499421 12.425137 3.201424 1.503480 12.424726 3.200861 -0.000000 0.000000 -0.000003 -3.938631 -3.771810 -0.520486 -0.000001 -0.000002 -0.000007 12.727328 -3.974354 -1.913533 -16.017929 -0.188721 4.509290 9.484836 3.874511 -2.235966 -5.491042 -0.705662 0.047078 0.000000 -0.000000 0.000000 0.000000 -0.000000 0.000000 10.214786 4.391071 2.527546 -25.845175 0.923654 -7.192095 28.320848 -0.729202 7.208300 4.268846 -1.496466 -2.679487 0.000000 -0.000000 0.000000 0.000000 0.000000 -0.000000 2.974182 0.280896 0.683272 2.954166 0.611512 1.015180 0.000003 0.000000 0.000000 -2.880417 -2.474518 0.158540 -2.883996 -2.442475 -0.073322 -2.861522 -2.388188 -0.231068 -0.000001 -0.000000 -0.000000 3.921408 -3.088678 -2.341550 -0.000000 0.000000 0.000000 
0.000000 100.688469 -41.520966 -0.532755 0.000000 -0.000000 -1.788431 0.958683 0.030084 1.232787 -0.652974 -0.006936 1.127065 -0.639277 0.006354 1.254246 -0.638864 0.020438 -1.819136 0.958825 -0.000012 0.000000 0.000000 0.000000 -8.599272 -0.166675 0.047684 32.672049 -0.000013 -0.000020 0.293952 0.118110 -0.090559 4.215495 -0.006041 -0.039916 0.000001 -0.000000 -0.000003 0.000003 -0.000000 0.000000 0.000000 -0.000000 0.000000 -1.087969 0.219940 0.180838 2.814504 0.000003 -0.000000 -4.971868 -0.198416 -0.005917 3.719422 -0.026509 -0.181974 -0.000000 0.000000 -0.000001 -0.000000 0.000000 0.000000 7.000389 -0.000200 -0.001698 11.192344 -0.000997 -0.002113 4.485167 -0.000070 -0.000204 -23.380057 -0.000006 0.000001 -0.000002 0.000000 -0.000000 0.000002 0.000011 -0.000009 1.143916 -9.177016 -2.498552 1.180430 -9.229785 -2.401669 -0.000001 -0.000000 0.000002 1.143916 9.177014 2.498535 1.180431 9.229787 2.401670 0.000001 0.000002 -0.000000 -3.872606 -3.851508 -0.862021 -0.000001 -0.000002 -0.000007 12.181514 -3.924117 -1.867110 -15.546714 -0.165183 4.378057 9.206612 3.813732 -2.163498 -5.155757 -0.661845 0.048860 0.000000 0.000000 0.000000 -0.000000 -0.000000 -0.000000 12.222507 4.447304 2.852418 -33.014915 1.746518 -9.056655 54.977135 3.382510 10.589631 10.300267 -3.225159 -4.695315 -0.000001 -0.000000 0.000000 -0.000003 0.000000 0.000000 2.874853 0.271508 0.660431 2.855760 0.591068 0.981228 0.000003 0.000000 0.000000 -2.948439 -3.079070 0.005195 -2.955375 -3.011898 -0.327737 -2.954931 -2.922062 -0.553511 -0.000000 0.000000 -0.000000 3.944810 -2.701700 -3.968153 0.000002 -0.000000 0.000000 
0.000000 100.882996 -42.201248 -0.518236 0.000000 -0.000000 -1.906081 1.024790 0.034050 1.330857 -0.703624 -0.007751 1.201627 -0.683450 0.007205 1.337888 -0.682957 0.023224 -1.940197 1.025081 -0.000030 0.000000 -0.000000 -0.000000 -10.103562 -0.165376 0.043694 41.366242 -0.000017 -0.000027 10.884038 0.070621 -0.146789 3.962138 -0.001299 -0.008849 0.000001 -0.000000 0.000004 0.000002 -0.000000 -0.000000 0.000000 -0.000000 -0.000000 -1.410739 0.214548 0.176301 3.548010 -0.000001 -0.000005 -10.946681 -0.184659 -0.024919 9.263174 -0.034162 -0.174373 -0.000000 0.000000 -0.000004 -0.000000 -0.000000 0.000000 5.140838 -0.000075 -0.000853 9.299070 -0.000554 -0.001299 4.060871 -0.000033 -0.000088 -23.380055 -0.000006 0.000001 -0.000000 -0.000000 -0.000000 0.000000 0.000011 -0.000009 0.645400 -4.595268 -1.135178 0.629820 -4.553782 -1.206522 0.000004 0.000001 0.000002 0.645394 4.595262 1.135166 0.629817 4.553783 1.206520 0.000003 0.000000 0.000000 -4.032328 -3.368880 1.161582 -0.000002 -0.000002 -0.000007 11.476652 -3.853669 -1.826016 -15.132276 -0.145373 4.262487 8.960641 3.704916 -2.101073 -4.642858 -0.594267 0.052953 0.000000 -0.000000 0.000000 -0.000000 -0.000000 -0.000000 13.569315 4.456971 3.100364 -35.894973 2.142545 -9.776220 78.893002 6.532552 10.363542 14.558060 -4.108039 -4.877706 -0.000000 0.000000 0.000000 -0.000000 0.000000 -0.000000 2.756328 0.260298 0.633178 2.738315 0.566674 0.940731 -0.000000 0.000000 0.000000 -2.835714 -3.585332 0.069268 -2.846203 -3.521756 -0.351219 -2.852750 -3.425262 -0.639460 -0.000000 -0.000001 -0.000000 3.934578 -2.847625 -3.357639 0.000001 -0.000000 0.000000 
